<?xml version="1.0" encoding="utf-8"?>
<!-- Generator: Adobe Illustrator 26.3.1, SVG Export Plug-In . SVG Version: 6.00 Build 0)  -->
<svg version="1.1" id="Layer_1" xmlns="http://www.w3.org/2000/svg" xmlns:xlink="http://www.w3.org/1999/xlink" x="0px" y="0px"
	 viewBox="0 0 480.89 153.27" style="enable-background:new 0 0 480.89 153.27;" xml:space="preserve">
<style type="text/css">
	.st0{fill:#FFFFFF;}
</style>
<g>
	<g>
		<path d="M190.54,70.7h-14.16l-1.96,5.93h-8.28l12.54-34.07h9.62l12.82,34.07h-8.56L190.54,70.7z M188.24,63.96l-1.96-5.84
			c-0.91-2.54-1.91-5.65-2.87-8.61c-0.96,2.97-1.96,6.08-2.82,8.61l-1.96,5.84H188.24z"/>
		<path d="M209.62,57.4v11.53c0,1.82,0.91,2.15,2.82,2.15h1.91v5.55c-1.15,0.14-2.34,0.19-3.44,0.19c-6.17,0-8.76-2.01-8.76-7.08
			V57.4h-3.68v-5.45h3.68v-7.32h7.46v7.32h4.74v5.45H209.62z"/>
		<path d="M225.46,57.4v11.53c0,1.82,0.91,2.15,2.82,2.15h1.91v5.55c-1.15,0.14-2.34,0.19-3.44,0.19c-6.17,0-8.76-2.01-8.76-7.08
			V57.4h-3.68v-5.45H218v-7.32h7.46v7.32h4.74v5.45H225.46z"/>
		<path d="M248.82,76.63c-0.33-0.62-0.57-1.67-0.62-2.77c-1.58,2.11-4.26,3.35-7.89,3.35c-5.17,0-9-2.63-9-7.56
			c0-4.26,2.54-7.08,9.67-7.7l3.88-0.33c2.11-0.24,3.21-0.86,3.21-2.44c0-1.48-0.81-2.49-3.78-2.49c-2.92,0-4.12,0.72-4.35,3.25
			h-7.42c0.38-5.45,3.88-8.56,11.82-8.56c7.75,0,11.01,2.92,11.01,7.61v13.11c0,1.82,0.33,3.59,1,4.55H248.82z M248.05,66.92V65.1
			c-0.53,0.57-1.34,0.81-2.49,0.96l-3.06,0.33c-2.54,0.29-3.59,1.24-3.59,2.97c0,1.72,1.29,2.82,3.64,2.82
			C245.42,72.18,248.05,70.8,248.05,66.92z"/>
		<path d="M257.6,64.29c0-7.85,4.93-12.92,12.68-12.92c6.8,0,11.39,3.78,12.06,9.86h-7.42c-0.43-2.63-2.25-3.78-4.64-3.78
			c-3.16,0-5.12,2.11-5.12,6.84c0,4.74,2.01,6.79,5.12,6.79c2.49,0,4.45-1.24,4.78-4.16h7.42c-0.53,6.36-5.36,10.29-12.2,10.29
			C262.58,77.21,257.6,72.14,257.6,64.29z"/>
		<path d="M295.44,66.44l-3.35,3.44v6.75h-7.32V42.57h7.32v19.14l9.14-9.76h8.57l-9.28,9.57l9.81,15.12h-8.52L295.44,66.44z"/>
		<path d="M355.82,42.57l-11.91,34.07h-9.57l-12.3-34.07h8.66l4.98,14.98c1.15,3.59,2.39,7.7,3.49,11.96
			c1.05-4.26,2.25-8.37,3.4-11.96l4.93-14.98H355.82z"/>
		<path d="M378.79,66.49h-18.28c0.53,3.54,2.73,5.22,5.65,5.22c2.49,0,4.11-1,4.98-2.77h7.08c-1.34,5.21-6.12,8.28-12.06,8.28
			c-7.66,0-12.82-5.07-12.82-12.92c0-7.8,5.02-12.92,12.73-12.92c7.7,0,12.73,5.31,12.73,13.64V66.49z M360.56,61.75h10.91
			c-0.53-3.06-2.49-4.88-5.5-4.88C363.24,56.87,361.13,58.31,360.56,61.75z"/>
		<path d="M380.31,64.29c0-7.85,4.93-12.92,12.68-12.92c6.8,0,11.39,3.78,12.06,9.86h-7.42c-0.43-2.63-2.25-3.78-4.64-3.78
			c-3.16,0-5.12,2.11-5.12,6.84c0,4.74,2.01,6.79,5.12,6.79c2.49,0,4.45-1.24,4.78-4.16h7.42c-0.53,6.36-5.36,10.29-12.2,10.29
			C385.29,77.21,380.31,72.14,380.31,64.29z"/>
		<path d="M416.66,57.4v11.53c0,1.82,0.91,2.15,2.82,2.15h1.91v5.55c-1.15,0.14-2.34,0.19-3.44,0.19c-6.17,0-8.76-2.01-8.76-7.08
			V57.4h-3.68v-5.45h3.68v-7.32h7.46v7.32h4.74v5.45H416.66z"/>
		<path d="M422.23,64.29c0-7.85,5.07-12.92,12.97-12.92c7.85,0,12.92,5.07,12.92,12.92c0,7.85-5.07,12.92-12.92,12.92
			C427.3,77.21,422.23,72.14,422.23,64.29z M440.55,64.29c0-4.69-2.06-6.94-5.36-6.94c-3.35,0-5.41,2.25-5.41,6.94
			c0,4.69,2.06,6.94,5.41,6.94C438.49,71.23,440.55,68.98,440.55,64.29z"/>
		<path d="M466.58,51.66v6.79h-1.91c-4.16,0-6.56,2.06-6.56,6.7v11.48h-7.46V51.95h7.27v4.59c1.05-3.06,3.35-4.98,7.03-4.98
			C465.53,51.56,466.06,51.61,466.58,51.66z"/>
	</g>
	<path d="M113.87,76.64H89c0-13.76-11.15-24.91-24.91-24.91S39.19,62.88,39.19,76.64H14.31l49.78-65.56L113.87,76.64z"/>
	<path d="M51.56,76.64h24.88c0,13.76,11.15,24.91,24.91,24.91s24.91-11.15,24.91-24.91h24.88l-49.78,65.56L51.56,76.64z"/>
</g>
</svg>
