<?xml version="1.0" encoding="UTF-8"?><svg id="Layer_1" xmlns="http://www.w3.org/2000/svg" viewBox="0 0 480.89 153.27"><defs><style>.cls-1{fill:#fff;}</style></defs><g><path class="cls-1" d="M190.54,70.7h-14.16l-1.96,5.93h-8.28l12.54-34.07h9.62l12.82,34.07h-8.56l-2.01-5.93Zm-2.3-6.75l-1.96-5.84c-.91-2.54-1.91-5.65-2.87-8.61-.96,2.97-1.96,6.08-2.82,8.61l-1.96,5.84h9.62Z"/><path class="cls-1" d="M209.62,57.4v11.53c0,1.82,.91,2.15,2.82,2.15h1.91v5.55c-1.15,.14-2.34,.19-3.44,.19-6.17,0-8.76-2.01-8.76-7.08v-12.34h-3.68v-5.45h3.68v-7.32h7.46v7.32h4.74v5.45h-4.74Z"/><path class="cls-1" d="M225.46,57.4v11.53c0,1.82,.91,2.15,2.82,2.15h1.91v5.55c-1.15,.14-2.34,.19-3.44,.19-6.17,0-8.76-2.01-8.76-7.08v-12.34h-3.68v-5.45h3.68v-7.32h7.46v7.32h4.74v5.45h-4.74Z"/><path class="cls-1" d="M248.82,76.63c-.33-.62-.57-1.67-.62-2.77-1.58,2.11-4.26,3.35-7.89,3.35-5.17,0-9-2.63-9-7.56,0-4.26,2.54-7.08,9.67-7.7l3.88-.33c2.11-.24,3.21-.86,3.21-2.44,0-1.48-.81-2.49-3.78-2.49s-4.12,.72-4.35,3.25h-7.42c.38-5.45,3.88-8.56,11.82-8.56s11.01,2.92,11.01,7.61v13.11c0,1.82,.33,3.59,1,4.55h-7.51Zm-.77-9.71v-1.82c-.53,.57-1.34,.81-2.49,.96l-3.06,.33c-2.54,.29-3.59,1.24-3.59,2.97s1.29,2.82,3.64,2.82c2.87,0,5.5-1.39,5.5-5.26Z"/><path class="cls-1" d="M257.6,64.29c0-7.85,4.93-12.92,12.68-12.92,6.8,0,11.39,3.78,12.06,9.86h-7.42c-.43-2.63-2.25-3.78-4.64-3.78-3.16,0-5.12,2.11-5.12,6.84s2.01,6.79,5.12,6.79c2.49,0,4.45-1.24,4.78-4.16h7.42c-.53,6.36-5.36,10.29-12.2,10.29-7.7,0-12.68-5.07-12.68-12.92Z"/><path class="cls-1" d="M295.44,66.44l-3.35,3.44v6.75h-7.32V42.57h7.32v19.14l9.14-9.76h8.57l-9.28,9.57,9.81,15.12h-8.52l-6.36-10.19Z"/><path class="cls-1" d="M355.82,42.57l-11.91,34.07h-9.57l-12.3-34.07h8.66l4.98,14.98c1.15,3.59,2.39,7.7,3.49,11.96,1.05-4.26,2.25-8.37,3.4-11.96l4.93-14.98h8.33Z"/><path class="cls-1" d="M378.79,66.49h-18.28c.53,3.54,2.73,5.22,5.65,5.22,2.49,0,4.11-1,4.98-2.77h7.08c-1.34,5.21-6.12,8.28-12.06,8.28-7.66,0-12.82-5.07-12.82-12.92s5.02-12.92,12.73-12.92,12.73,5.31,12.73,13.64v1.48Zm-18.23-4.74h10.91c-.53-3.06-2.49-4.88-5.5-4.88-2.73,0-4.83,1.44-5.41,4.88Z"/><path class="cls-1" d="M380.31,64.29c0-7.85,4.93-12.92,12.68-12.92,6.8,0,11.39,3.78,12.06,9.86h-7.42c-.43-2.63-2.25-3.78-4.64-3.78-3.16,0-5.12,2.11-5.12,6.84s2.01,6.79,5.12,6.79c2.49,0,4.45-1.24,4.78-4.16h7.42c-.53,6.36-5.36,10.29-12.2,10.29-7.7,0-12.68-5.07-12.68-12.92Z"/><path class="cls-1" d="M416.66,57.4v11.53c0,1.82,.91,2.15,2.82,2.15h1.91v5.55c-1.15,.14-2.34,.19-3.44,.19-6.17,0-8.76-2.01-8.76-7.08v-12.34h-3.68v-5.45h3.68v-7.32h7.46v7.32h4.74v5.45h-4.74Z"/><path class="cls-1" d="M422.23,64.29c0-7.85,5.07-12.92,12.97-12.92s12.92,5.07,12.92,12.92-5.07,12.92-12.92,12.92-12.97-5.07-12.97-12.92Zm18.32,0c0-4.69-2.06-6.94-5.36-6.94s-5.41,2.25-5.41,6.94,2.06,6.94,5.41,6.94,5.36-2.25,5.36-6.94Z"/><path class="cls-1" d="M466.58,51.66v6.79h-1.91c-4.16,0-6.56,2.06-6.56,6.7v11.48h-7.46v-24.69h7.27v4.59c1.05-3.06,3.35-4.98,7.03-4.98,.57,0,1.1,.05,1.63,.1Z"/></g><path class="cls-1" d="M113.87,76.64h-24.88c0-13.76-11.15-24.91-24.91-24.91s-24.91,11.15-24.91,24.91H14.31L64.09,11.08l49.78,65.56Z"/><path class="cls-1" d="M51.56,76.64h24.88c0,13.76,11.15,24.91,24.91,24.91s24.91-11.15,24.91-24.91h24.88l-49.78,65.56L51.56,76.64Z"/></svg>