<?xml version="1.0" encoding="utf-8"?>
<!-- Generator: Adobe Illustrator 26.2.1, SVG Export Plug-In . SVG Version: 6.00 Build 0)  -->
<svg version="1.1" xmlns="http://www.w3.org/2000/svg" xmlns:xlink="http://www.w3.org/1999/xlink" x="0px" y="0px"
	 viewBox="0 0 1052.61 253.27" style="enable-background:new 0 0 1052.61 253.27;" xml:space="preserve">
<style type="text/css">
	.st0{fill:#FFFFFF;}
</style>
<g id="Layer_1">
</g>
<g id="R_00000029029643835756884740000002295818654791519628_">
	<g>
		<g>
			<g>
				<path class="st0" d="M128.81,134.91c11.44,5.62,21.47,8.63,32.91,11.04c19.46,4.21,36.92,5.02,48.76,5.02
					c16.45,0,31.3-1.61,47.96-5.02c12.04-2.61,21.87-5.22,33.71-11.04l10.64,19.46c-13.85,6.82-27.69,11.64-44.15,15.25
					c-18.06,3.81-31.51,4.62-48.16,4.62c-19.26,0-33.51-1.2-50.97-5.02c-14.45-3.21-27.09-7.22-41.34-14.85L128.81,134.91z"/>
			</g>
			<g>
				<path class="st0" d="M266.62,79.03c7.97,0,14.12,6.16,14.12,14.12s-6.16,14.13-14.12,14.13s-14.12-6.16-14.12-14.13
					S258.66,79.03,266.62,79.03z"/>
			</g>
			<g>
				<path class="st0" d="M154.34,79.03c7.97,0,14.12,6.16,14.12,14.12s-6.16,14.13-14.12,14.13c-7.97,0-14.12-6.16-14.12-14.13
					S146.38,79.03,154.34,79.03z"/>
			</g>
			<path class="st0" d="M336.75,71.08c0-2.7,0-6.38-2.51-8.89c-2.9-2.9-8.89-2.9-13.14-2.9h-4.64V39.2
				c3.09-0.19,8.11-0.39,12.37-0.39c8.11,0,16.81,0.58,22.8,5.6c7.34,5.99,7.54,14.3,7.54,22.03v35.17c0,4.25,1.16,9.08,3.28,11.59
				c1.74,1.93,4.64,3.09,7.34,3.48v20.1c-2.7,0.39-5.6,1.55-7.34,3.48c-2.13,2.51-3.28,7.34-3.28,11.6v34.97
				c0,7.73-0.19,16.04-7.54,22.03c-5.99,5.02-14.69,5.6-22.8,5.6c-4.25,0-9.28-0.19-12.37-0.39v-20.1h4.64c4.25,0,10.24,0,13.14-2.9
				c2.51-2.51,2.51-6.18,2.51-8.89v-31.3c0-12.95,2.32-18.16,11.59-24.15c-9.28-5.99-11.59-11.21-11.59-24.15V71.08z"/>
			<path class="st0" d="M84.22,102.58c0,12.95-2.32,18.16-11.6,24.15c9.28,5.99,11.6,11.21,11.6,24.15v31.3c0,2.7,0,6.38,2.51,8.89
				c2.9,2.9,8.89,2.9,13.14,2.9h4.64v20.1c-3.09,0.19-8.12,0.39-12.37,0.39c-8.12,0-16.81-0.58-22.8-5.6
				c-7.34-5.99-7.54-14.3-7.54-22.03v-34.97c0-4.25-1.16-9.08-3.28-11.6c-1.74-1.93-4.64-3.09-7.34-3.48v-20.1
				c2.71-0.39,5.6-1.55,7.34-3.48c2.13-2.51,3.28-7.34,3.28-11.59V66.44c0-7.73,0.19-16.04,7.54-22.03c5.99-5.02,14.69-5.6,22.8-5.6
				c4.25,0,9.27,0.19,12.37,0.39v20.1h-4.64c-4.25,0-10.24,0-13.14,2.9c-2.51,2.51-2.51,6.18-2.51,8.89V102.58z"/>
		</g>
		<g>
			<g>
				<path class="st0" d="M428.36,178.48c1.95,0,5.76,0,8.61,2.22c2.06,1.59,3.28,4.33,3.28,7.29c0,4.54-3.01,6.39-3.96,6.92
					c2.32,0.37,3.7,1.37,4.6,2.22c2.11,2.01,2.54,4.75,2.54,6.6c0,2.06-0.58,4.97-3.01,7.13c-2.64,2.32-5.86,2.85-8.93,2.85h-11.83
					v-35.23H428.36z M426.51,193.12h1.95c1.06,0,5.34-0.11,5.34-4.6c0-3.22-2.48-4.44-5.28-4.44h-2.01V193.12z M426.51,208.12h2.96
					c1.27,0,3.17-0.05,4.7-0.95c1.69-1,2.17-2.69,2.17-4.07c0-1.11-0.37-3.01-2.59-4.01c-1.48-0.69-3.22-0.69-4.7-0.69h-2.54V208.12
					z"/>
				<path class="st0" d="M503.13,178.48v22.13c0,2.69,0.9,4.33,1.69,5.23c1,1.21,2.85,2.43,5.6,2.43c2.75,0,4.6-1.21,5.6-2.43
					c0.79-0.9,1.69-2.54,1.69-5.23v-22.13h6.87v21.55c0,3.33-0.53,6.71-2.64,9.4c-2.54,3.33-6.97,5.07-11.52,5.07
					c-4.54,0-8.98-1.74-11.52-5.07c-2.11-2.69-2.64-6.08-2.64-9.4v-21.55H503.13z"/>
				<path class="st0" d="M586.66,178.48v35.23h-6.87v-35.23H586.66z"/>
				<path class="st0" d="M648.73,178.48v29.32h10.88v5.92h-17.75v-35.23H648.73z"/>
				<path class="st0" d="M720.31,178.48c4.91,0,9.19,0.53,13.1,3.43c4.28,3.22,6.76,8.35,6.76,14.21s-2.43,10.93-7.08,14.21
					c-4.12,2.91-7.98,3.38-12.89,3.38h-9.09v-35.23H720.31z M717.98,207.8h2.11c1.74,0,5.55-0.11,8.61-2.32
					c2.8-2.01,4.38-5.6,4.38-9.35c0-3.7-1.53-7.29-4.33-9.4c-2.85-2.11-6.34-2.32-8.66-2.32h-2.11V207.8z"/>
				<path class="st0" d="M813.09,184.4h-12.68v7.87h12.15v5.92h-12.15v9.61h12.68v5.92h-19.55v-35.23h19.55V184.4z"/>
				<path class="st0" d="M877.56,178.48c4.86,0,7.34,1.27,8.98,2.64c2.69,2.27,3.49,5.28,3.49,7.92c0,3.43-1.37,6.44-4.12,8.29
					c-0.9,0.63-2.17,1.22-3.86,1.53l10.99,14.84h-8.56l-9.4-14.16h-0.85v14.16h-6.87v-35.23H877.56z M874.24,194.7h1.95
					c1.32,0,6.76-0.16,6.76-5.33c0-5.23-5.39-5.28-6.66-5.28h-2.06V194.7z"/>
				<path class="st0" d="M961.16,186.51c-2.06-2.75-4.49-3.01-5.76-3.01c-3.7,0-4.86,2.32-4.86,4.12c0,0.85,0.26,1.64,1.11,2.38
					c0.84,0.79,2.01,1.21,4.23,2.01c2.75,0.95,5.34,1.9,7.13,3.54c1.58,1.43,3.01,3.8,3.01,7.4c0,6.87-4.97,11.57-12.26,11.57
					c-6.5,0-10.3-3.96-12.15-6.66l4.49-4.28c1.69,3.43,4.91,4.7,7.4,4.7c3.12,0,5.44-1.9,5.44-4.86c0-1.27-0.42-2.27-1.37-3.17
					c-1.32-1.21-3.43-1.9-5.44-2.59c-1.85-0.63-4.07-1.48-5.86-3.06c-1.16-1-2.8-2.96-2.8-6.55c0-5.18,3.49-10.35,11.3-10.35
					c2.22,0,6.39,0.42,9.98,4.12L961.16,186.51z"/>
			</g>
			<path class="st0" d="M1001.43,67.28h-41.9v91.81h-28.86V67.28h-41.9V40.85h112.67V67.28z"/>
			<path class="st0" d="M888.95,99.97c0,33.73-27.47,61.2-61.03,61.2c-33.91,0-61.03-27.47-61.03-61.2
				c0-33.56,27.12-61.21,61.03-61.21C861.48,38.76,888.95,66.41,888.95,99.97z M792.97,99.97c0,19.3,15.65,34.78,34.95,34.78
				c18.95,0,34.6-15.47,34.6-34.78c0-19.13-15.65-34.6-34.6-34.6C808.62,65.37,792.97,80.84,792.97,99.97z"/>
			<path class="st0" d="M760.59,124.66c0,19.3-12.35,34.43-44.69,34.43h-58.25V40.85h51.29c34.25,0,45.03,13.56,45.03,32.51
				c0,12.17-8.52,20.69-11.13,22.6C754.33,101.71,760.59,111.96,760.59,124.66z M726.85,77.02c0-8-5.22-11.82-16.17-11.82h-24.52
				v24.69h24.52C723.03,89.88,726.85,86.23,726.85,77.02z M712.59,111.62h-26.43v22.95h26.43c11.48,0,17.21-3.83,17.21-11.48
				C729.81,114.4,723.9,111.62,712.59,111.62z"/>
			<path class="st0" d="M648.45,99.97c0,33.73-27.47,61.2-61.03,61.2c-33.91,0-61.03-27.47-61.03-61.2
				c0-33.56,27.12-61.21,61.03-61.21C620.97,38.76,648.45,66.41,648.45,99.97z M552.47,99.97c0,19.3,15.65,34.78,34.95,34.78
				c18.95,0,34.6-15.47,34.6-34.78c0-19.13-15.65-34.6-34.6-34.6C568.11,65.37,552.47,80.84,552.47,99.97z"/>
			<path class="st0" d="M518.93,85.19c0,17.04-8.35,31.47-21.04,38.25l24.34,35.64h-35.47l-17.74-29.39h-20.87v29.39h-28.52V40.85
				h57.21C500.85,40.85,518.93,59.45,518.93,85.19z M448.16,67.28v35.99h24.52c9.74,0,17.56-8.17,17.56-18.08
				c0-9.74-7.82-17.91-17.39-17.91H448.16z"/>
		</g>
	</g>
</g>
</svg>
