<?xml version="1.0" encoding="utf-8"?>
<!-- Generator: Adobe Illustrator 26.2.1, SVG Export Plug-In . SVG Version: 6.00 Build 0)  -->
<svg version="1.1" xmlns="http://www.w3.org/2000/svg" xmlns:xlink="http://www.w3.org/1999/xlink" x="0px" y="0px"
	 viewBox="0 0 1080 597.24" style="enable-background:new 0 0 1080 597.24;" xml:space="preserve">
<style type="text/css">
	.st0{fill:#FFFFFF;}
</style>
<g id="Layer_1">
</g>
<g id="R">
	<g>
		<g>
			<path class="st0" d="M688.56,172.65c21.08,0,37.37,16.29,37.37,37.37s-16.29,37.38-37.37,37.38c-21.08,0-37.37-16.29-37.37-37.38
				S667.47,172.65,688.56,172.65z"/>
		</g>
		<g>
			<path class="st0" d="M391.44,172.65c21.08,0,37.37,16.29,37.37,37.37s-16.29,37.38-37.37,37.38c-21.08,0-37.37-16.29-37.37-37.38
				S370.36,172.65,391.44,172.65z"/>
		</g>
		<path class="st0" d="M874.12,151.61c0-7.16,0-16.87-6.65-23.52c-7.67-7.67-23.52-7.67-34.77-7.67h-12.27V67.25
			c8.18-0.51,21.47-1.02,32.72-1.02c21.47,0,44.48,1.53,60.33,14.83c19.43,15.85,19.94,37.83,19.94,58.29v93.06
			c0,11.25,3.07,24.03,8.69,30.68c4.6,5.12,12.27,8.18,19.43,9.2v53.18c-7.16,1.03-14.83,4.09-19.43,9.2
			c-5.62,6.65-8.69,19.43-8.69,30.68v92.54c0,20.46-0.51,42.44-19.94,58.29c-15.85,13.29-38.86,14.83-60.33,14.83
			c-11.25,0-24.55-0.51-32.72-1.02v-53.18h12.27c11.25,0,27.1,0,34.77-7.67c6.65-6.65,6.65-16.36,6.65-23.52v-82.84
			c0-34.26,6.13-48.06,30.68-63.91c-24.55-15.85-30.68-29.66-30.68-63.91V151.61z"/>
		<path class="st0" d="M205.89,234.96c0,34.26-6.14,48.07-30.68,63.91c24.55,15.85,30.68,29.66,30.68,63.91v82.84
			c0,7.16,0,16.87,6.64,23.52c7.67,7.67,23.52,7.67,34.77,7.67h12.27v53.18c-8.18,0.51-21.48,1.02-32.72,1.02
			c-21.48,0-44.49-1.53-60.34-14.83c-19.43-15.85-19.94-37.83-19.94-58.29v-92.54c0-11.25-3.06-24.03-8.69-30.68
			c-4.6-5.11-12.27-8.18-19.43-9.2v-53.18c7.16-1.02,14.83-4.09,19.43-9.2c5.63-6.64,8.69-19.43,8.69-30.68v-93.06
			c0-20.45,0.51-42.44,19.94-58.29c15.85-13.29,38.86-14.83,60.34-14.83c11.25,0,24.54,0.51,32.72,1.02v53.18H247.3
			c-11.25,0-27.1,0-34.77,7.67c-6.64,6.65-6.64,16.36-6.64,23.52V234.96z"/>
		<g>
			<path class="st0" d="M593.36,360.57c-28.72,0-40.29-5.14-53.58-25.72c-13.29,20.57-24.86,25.72-53.58,25.72h-69.44
				c-6,0-14.14,0-19.71,5.57c-6.43,6.43-6.43,19.71-6.43,29.14v10.29h-44.57c-0.43-6.86-0.86-18-0.86-27.43
				c0-18,1.28-37.29,12.43-50.57c13.29-16.29,31.72-16.72,48.86-16.72h77.58c9.43,0,20.15-2.57,25.72-7.29
				c4.28-3.86,6.85-10.28,7.71-16.29h44.58c0.86,6,3.43,12.43,7.71,16.29c5.57,4.72,16.29,7.29,25.72,7.29h78.01
				c17.14,0,35.57,0.43,48.86,16.72c11.14,13.29,12.43,32.57,12.43,50.57c0,9.43-0.43,20.57-0.86,27.43h-44.57v-10.29
				c0-9.43,0-22.71-6.43-29.14c-5.57-5.57-13.71-5.57-19.72-5.57H593.36z"/>
		</g>
	</g>
</g>
</svg>
