<?xml version="1.0" encoding="utf-8"?>
<!-- Generator: Adobe Illustrator 26.2.1, SVG Export Plug-In . SVG Version: 6.00 Build 0)  -->
<svg version="1.1" xmlns="http://www.w3.org/2000/svg" xmlns:xlink="http://www.w3.org/1999/xlink" x="0px" y="0px"
	 viewBox="0 0 1080 597.24" style="enable-background:new 0 0 1080 597.24;" xml:space="preserve">
<style type="text/css">
	.st0{fill:#FFFFFF;}
</style>
<g id="Layer_1">
</g>
<g id="R">
	<g>
		<g>
			<path class="st0" d="M323.88,320.52c30.27,14.87,56.82,22.84,87.08,29.2C462.47,360.88,508.67,363,540,363
				c43.54,0,82.83-4.25,126.91-13.28c31.86-6.9,57.87-13.8,89.2-29.2l28.14,51.51c-36.64,18.06-73.28,30.8-116.82,40.36
				c-47.79,10.09-83.37,12.21-127.44,12.21c-50.98,0-88.67-3.18-134.87-13.27c-38.23-8.5-71.69-19.12-109.38-39.3L323.88,320.52z"/>
		</g>
		<g>
			<path class="st0" d="M688.56,172.65c21.08,0,37.37,16.29,37.37,37.37s-16.29,37.38-37.37,37.38c-21.08,0-37.37-16.29-37.37-37.38
				S667.47,172.65,688.56,172.65z"/>
		</g>
		<g>
			<path class="st0" d="M391.44,172.65c21.08,0,37.37,16.29,37.37,37.37s-16.29,37.38-37.37,37.38c-21.08,0-37.37-16.29-37.37-37.38
				S370.36,172.65,391.44,172.65z"/>
		</g>
		<path class="st0" d="M874.12,151.61c0-7.16,0-16.87-6.65-23.52c-7.67-7.67-23.52-7.67-34.77-7.67h-12.27V67.25
			c8.18-0.51,21.47-1.02,32.72-1.02c21.47,0,44.48,1.53,60.33,14.83c19.43,15.85,19.94,37.83,19.94,58.29v93.06
			c0,11.25,3.07,24.03,8.69,30.68c4.6,5.12,12.27,8.18,19.43,9.2v53.18c-7.16,1.03-14.83,4.09-19.43,9.2
			c-5.62,6.65-8.69,19.43-8.69,30.68v92.54c0,20.46-0.51,42.44-19.94,58.29c-15.85,13.29-38.86,14.83-60.33,14.83
			c-11.25,0-24.55-0.51-32.72-1.02v-53.18h12.27c11.25,0,27.1,0,34.77-7.67c6.65-6.65,6.65-16.36,6.65-23.52v-82.84
			c0-34.26,6.13-48.06,30.68-63.91c-24.55-15.85-30.68-29.66-30.68-63.91V151.61z"/>
		<path class="st0" d="M205.89,234.96c0,34.26-6.14,48.07-30.68,63.91c24.55,15.85,30.68,29.66,30.68,63.91v82.84
			c0,7.16,0,16.87,6.64,23.52c7.67,7.67,23.52,7.67,34.77,7.67h12.27v53.18c-8.18,0.51-21.48,1.02-32.72,1.02
			c-21.48,0-44.49-1.53-60.34-14.83c-19.43-15.85-19.94-37.83-19.94-58.29v-92.54c0-11.25-3.06-24.03-8.69-30.68
			c-4.6-5.11-12.27-8.18-19.43-9.2v-53.18c7.16-1.02,14.83-4.09,19.43-9.2c5.63-6.64,8.69-19.43,8.69-30.68v-93.06
			c0-20.45,0.51-42.44,19.94-58.29c15.85-13.29,38.86-14.83,60.34-14.83c11.25,0,24.54,0.51,32.72,1.02v53.18H247.3
			c-11.25,0-27.1,0-34.77,7.67c-6.64,6.65-6.64,16.36-6.64,23.52V234.96z"/>
	</g>
</g>
</svg>
