<?xml version="1.0" encoding="utf-8"?>
<!-- Generator: Adobe Illustrator 26.2.1, SVG Export Plug-In . SVG Version: 6.00 Build 0)  -->
<svg version="1.1" id="Layer_1" xmlns="http://www.w3.org/2000/svg" xmlns:xlink="http://www.w3.org/1999/xlink" x="0px" y="0px"
	 viewBox="0 0 957.74 351.53" style="enable-background:new 0 0 957.74 351.53;" xml:space="preserve">
<style type="text/css">
	.st0{fill:#FFFFFF;}
</style>
<g id="Layer_1_00000131364350006954873390000004113757126000420252_">
</g>
<g id="R">
	<g>
		<path class="st0" d="M51.84,254.69c2.96,0,8.72,0,13.04,3.36c3.12,2.4,4.96,6.56,4.96,11.04c0,6.88-4.56,9.68-6,10.48
			c3.52,0.56,5.6,2.08,6.96,3.36c3.2,3.04,3.84,7.2,3.84,10c0,3.12-0.88,7.52-4.56,10.8c-4,3.52-8.88,4.32-13.52,4.32H38.64v-53.37
			h13.2V254.69z M49.04,276.86H52c1.6,0,8.08-0.16,8.08-6.96c0-4.88-3.76-6.72-8-6.72h-3.04V276.86z M49.04,299.58h4.48
			c1.92,0,4.8-0.08,7.12-1.44c2.56-1.52,3.28-4.08,3.28-6.16c0-1.68-0.56-4.56-3.92-6.08c-2.24-1.04-4.88-1.04-7.12-1.04h-3.84
			C49.04,284.86,49.04,299.58,49.04,299.58z"/>
		<path class="st0" d="M165.11,254.69v33.53c0,4.08,1.36,6.56,2.56,7.92c1.52,1.84,4.32,3.68,8.48,3.68c4.16,0,6.96-1.84,8.48-3.68
			c1.2-1.36,2.56-3.84,2.56-7.92v-33.53h10.4v32.65c0,5.04-0.8,10.16-4,14.24c-3.84,5.04-10.56,7.68-17.44,7.68
			s-13.6-2.64-17.44-7.68c-3.2-4.08-4-9.2-4-14.24v-32.65H165.11z"/>
		<path class="st0" d="M291.64,254.69v53.37h-10.4v-53.37H291.64z"/>
		<path class="st0" d="M385.67,254.69v44.41h16.48v8.96h-26.89v-53.37H385.67z"/>
		<path class="st0" d="M494.08,254.69c7.44,0,13.92,0.8,19.85,5.2c6.48,4.88,10.24,12.64,10.24,21.53c0,8.88-3.68,16.56-10.72,21.53
			c-6.24,4.4-12.08,5.12-19.52,5.12h-13.77V254.7h13.92V254.69z M490.56,299.1h3.2c2.64,0,8.4-0.16,13.04-3.52
			c4.24-3.04,6.64-8.48,6.64-14.16c0-5.6-2.32-11.04-6.56-14.24c-4.32-3.2-9.6-3.52-13.12-3.52h-3.2V299.1z"/>
		<path class="st0" d="M634.63,263.65h-19.21v11.92h18.41v8.96h-18.41v14.56h19.21v8.96h-29.61v-53.37h29.61V263.65z"/>
		<path class="st0" d="M732.3,254.69c7.36,0,11.12,1.92,13.6,4c4.08,3.44,5.28,8,5.28,12c0,5.2-2.08,9.76-6.24,12.56
			c-1.36,0.96-3.28,1.84-5.84,2.32l16.64,22.49h-12.96l-14.24-21.45h-1.28v21.45h-10.4v-53.37H732.3z M727.26,279.26h2.96
			c2,0,10.24-0.24,10.24-8.08c0-7.92-8.16-8-10.08-8h-3.12V279.26z"/>
		<path class="st0" d="M858.94,266.85c-3.12-4.16-6.8-4.56-8.72-4.56c-5.6,0-7.36,3.52-7.36,6.24c0,1.28,0.4,2.48,1.68,3.6
			c1.28,1.2,3.04,1.84,6.4,3.04c4.16,1.44,8.08,2.88,10.8,5.36c2.4,2.16,4.56,5.76,4.56,11.2c0,10.4-7.52,17.52-18.56,17.52
			c-9.84,0-15.6-6-18.4-10.08l6.8-6.48c2.56,5.2,7.44,7.12,11.2,7.12c4.72,0,8.24-2.88,8.24-7.36c0-1.92-0.64-3.44-2.08-4.8
			c-2-1.84-5.2-2.88-8.24-3.92c-2.8-0.96-6.16-2.24-8.88-4.64c-1.76-1.52-4.24-4.48-4.24-9.92c0-7.84,5.28-15.68,17.12-15.68
			c3.36,0,9.68,0.64,15.12,6.24L858.94,266.85z"/>
	</g>
	<g>
		<path class="st0" d="M919.94,86.24h-63.48v139.07h-43.72V86.24h-63.48V46.2h170.68V86.24z"/>
		<path class="st0" d="M749.55,135.76c0,51.1-41.62,92.71-92.45,92.71c-51.36,0-92.45-41.62-92.45-92.71
			c0-50.84,41.09-92.71,92.45-92.71C707.94,43.04,749.55,84.92,749.55,135.76z M604.16,135.76c0,29.24,23.71,52.68,52.94,52.68
			c28.71,0,52.41-23.44,52.41-52.68c0-28.97-23.7-52.42-52.41-52.42C627.87,83.34,604.16,106.78,604.16,135.76z"/>
		<path class="st0" d="M555.1,173.16c0,29.24-18.7,52.15-67.69,52.15h-88.24V46.2h77.7c51.89,0,68.22,20.54,68.22,49.25
			c0,18.44-12.91,31.34-16.86,34.24C545.62,138.39,555.1,153.93,555.1,173.16z M504,100.99c0-12.12-7.9-17.91-24.5-17.91h-37.14
			v37.4h37.14C498.21,120.48,504,114.95,504,100.99z M482.4,153.4h-40.04v34.77h40.04c17.38,0,26.08-5.8,26.08-17.38
			C508.48,157.62,499.52,153.4,482.4,153.4z"/>
		<path class="st0" d="M385.23,135.76c0,51.1-41.62,92.71-92.45,92.71c-51.36,0-92.45-41.62-92.45-92.71
			c0-50.84,41.09-92.71,92.45-92.71C343.61,43.04,385.23,84.92,385.23,135.76z M239.84,135.76c0,29.24,23.7,52.68,52.94,52.68
			c28.71,0,52.41-23.44,52.41-52.68c0-28.97-23.7-52.42-52.41-52.42C263.54,83.34,239.84,106.78,239.84,135.76z"/>
		<path class="st0" d="M189.04,113.37c0,25.81-12.64,47.67-31.87,57.95l36.88,54h-53.73l-26.87-44.51H81.84v44.51h-43.2V46.2h86.66
			C161.64,46.2,189.04,74.38,189.04,113.37z M81.83,86.24v54.52h37.14c14.75,0,26.6-12.38,26.6-27.39
			c0-14.75-11.85-27.13-26.34-27.13H81.83z"/>
	</g>
</g>
</svg>
